<?xml version="1.0" standalone="no"?>
<!DOCTYPE svg PUBLIC "-//W3C//DTD SVG 20010904//EN"
 "http://www.w3.org/TR/2001/REC-SVG-20010904/DTD/svg10.dtd">
<svg version="1.0" xmlns="http://www.w3.org/2000/svg"
 width="189.000000pt" height="169.000000pt" viewBox="0 0 189.000000 169.000000"
 preserveAspectRatio="xMidYMid meet">
<metadata>
Created by potrace 1.15, written by Peter Selinger 2001-2017
</metadata>
<g transform="translate(0.000000,169.000000) scale(0.100000,-0.100000)"
fill="#000000" stroke="none">
<path d="M675 1290 l-670 -389 -2 -298 c-2 -164 0 -303 5 -309 12 -17 498
-294 516 -294 18 0 1346 767 1359 784 4 6 6 35 5 65 l-3 53 -212 122 -212 121
-1 246 0 245 -39 22 c-21 12 -47 22 -57 22 -11 0 -320 -175 -689 -390z m713
329 c-5 -15 -1280 -750 -1295 -747 -8 2 -15 7 -16 11 -3 14 1284 756 1300 750
7 -3 13 -9 11 -14z m32 -258 l0 -219 -617 -358 c-340 -197 -633 -367 -651
-377 l-32 -19 0 219 0 219 648 377 c356 207 648 376 650 376 1 1 2 -98 2 -218z
m392 -470 c4 -4 -279 -173 -629 -376 -350 -204 -641 -373 -647 -377 -10 -5
-353 185 -377 209 -5 5 283 177 639 384 l647 375 180 -104 c99 -57 183 -107
187 -111z m-1730 -308 l3 -247 208 -120 c146 -85 207 -126 207 -138 0 -10 -2
-18 -4 -18 -3 0 -105 58 -228 129 l-223 129 -3 266 c-2 264 -2 267 18 256 19
-10 20 -22 22 -257z m1761 227 c-4 -5 -285 -169 -623 -365 -338 -196 -630
-366 -648 -377 l-34 -21 4 24 c2 19 113 87 653 401 480 278 651 373 653 361 2
-8 0 -19 -5 -23z"/>
</g>
</svg>
